<?xml version="1.0" encoding="iso-8859-1"?>
<svg fill="#ffffff" height="800px" width="800px" version="1.1" id="Capa_1" xmlns="http://www.w3.org/2000/svg" xmlns:xlink="http://www.w3.org/1999/xlink" 
	 viewBox="0 0 489.3 489.3" xml:space="preserve">
<g>
	<path d="M56.75,450.5c0,21.4,17.4,38.8,38.8,38.8h49.3l-88.1-101.2V450.5z"/>
	<g>
		<path d="M347.15,489.3h46.6c6.2,0,12.1-1.5,17.3-4.1l-111.9-128.6h67.4l66,75.8v-75.8l0,0V236.8c0-21.4-17.4-38.8-38.8-38.8h-1
			v-51.1c0-81-65.9-146.9-146.9-146.9S98.95,65.9,98.95,146.9V198h-3.4c-21.4,0-38.8,17.4-38.8,38.8v119.7h40l115.5,132.8h67.4
			l-115.4-132.7h67.4L347.15,489.3z M163.25,198.1V147c0-45.6,37.1-82.6,82.6-82.6c45.6,0,82.6,37.1,82.6,82.6v51.1H163.25z"/>
	</g>
</g>
</svg>